<?xml version="1.0" encoding="UTF-8"?>
<!DOCTYPE svg PUBLIC "-//W3C//DTD SVG 1.1//EN" "http://www.w3.org/Graphics/SVG/1.1/DTD/svg11.dtd">
<!-- Creator: CorelDRAW 2020 (64-Bit) -->
<svg xmlns="http://www.w3.org/2000/svg" xml:space="preserve" width="645px" height="296px" version="1.1" style="shape-rendering:geometricPrecision; text-rendering:geometricPrecision; image-rendering:optimizeQuality; fill-rule:evenodd; clip-rule:evenodd"
viewBox="0 0 645 296.15"
 xmlns:xlink="http://www.w3.org/1999/xlink"
 xmlns:xodm="http://www.corel.com/coreldraw/odm/2003">
 <defs>
  <style type="text/css">
   <![CDATA[
    .fil1 {fill:#040426}
    .fil2 {fill:white}
    .fil0 {fill:white;fill-rule:nonzero}
    .fil3 {fill:white;fill-rule:nonzero}
   ]]>
  </style>
 </defs>
 <g id="Слой_x0020_1">
  <metadata id="CorelCorpID_0Corel-Layer"/>
  <g id="_1946634456080">
   <path class="fil0" d="M43.44 50.13l558.88 49.68c11.9,1.05 22.75,6.05 30.51,13.81 7.52,7.52 12.17,17.59 12.17,29.21l0 60.17c0,1.15 -0.06,2.43 -0.19,3.83 -0.93,10.48 -5.62,20.28 -12.66,27.45 -7.16,7.28 -16.74,11.9 -27.35,11.9 -0.94,0 -2.01,-0.05 -3.24,-0.16l-558.88 -49.68c-11.9,-1.06 -22.75,-6.05 -30.51,-13.81 -7.52,-7.52 -12.17,-17.6 -12.17,-29.21l0 -60.17c0,-1.15 0.06,-2.43 0.19,-3.84 0.93,-10.48 5.62,-20.27 12.66,-27.44 7.15,-7.28 16.74,-11.9 27.35,-11.9 0.94,0 2.01,0.05 3.24,0.16zm558.12 58.44l-558.88 -49.68c-0.7,-0.06 -1.53,-0.09 -2.48,-0.09 -8.12,0 -15.51,3.59 -21.07,9.25 -5.66,5.76 -9.43,13.62 -10.18,22.02 -0.08,0.89 -0.12,1.92 -0.12,3.08l0 60.17c0,9.12 3.67,17.05 9.59,22.97 6.34,6.33 15.23,10.42 25.02,11.29l558.88 49.68c0.7,0.06 1.53,0.09 2.48,0.09 8.12,0 15.51,-3.59 21.07,-9.25 5.66,-5.76 9.43,-13.63 10.18,-22.02 0.08,-0.89 0.12,-1.92 0.12,-3.08l0 -60.17c0,-9.12 -3.67,-17.05 -9.59,-22.97 -6.34,-6.34 -15.23,-10.42 -25.02,-11.29z"/>
   <path class="fil0" d="M116.43 296.02c-2.36,0.57 -4.74,-0.88 -5.31,-3.24 -0.58,-2.37 0.88,-4.74 3.24,-5.32 55.79,-13.68 99.38,-40.62 137.35,-85.99 38.26,-45.72 70.89,-110.19 104.51,-198.62 0.85,-2.27 3.4,-3.42 5.67,-2.57 1.73,0.65 2.8,2.27 2.85,4 8.05,156.75 63.12,217.58 95.95,253.84 4.67,5.15 8.89,9.82 12.48,14.18 1.54,1.87 1.27,4.65 -0.61,6.19 -1.87,1.54 -4.65,1.27 -6.19,-0.61 -3.52,-4.28 -7.65,-8.84 -12.2,-13.86 -32.19,-35.56 -85.25,-94.19 -96.91,-239.44 -31.48,79.89 -62.61,139.32 -98.79,182.55 -39.24,46.89 -84.32,74.73 -142.04,88.89z"/>
   <path class="fil1" d="M43.44 187.58l558.88 49.68c0.7,0.06 1.53,0.09 2.48,0.09 8.12,0 15.51,-3.59 21.07,-9.25 5.66,-5.76 9.43,-13.63 10.18,-22.02 0.08,-0.89 0.12,-1.92 0.12,-3.08l0 -60.17c0,-9.12 -3.67,-17.05 -9.59,-22.97 -6.34,-6.34 -15.23,-10.42 -25.02,-11.29l-558.88 -49.68c-0.7,-0.06 -1.53,-0.09 -2.48,-0.09 -8.12,0 -15.51,3.59 -21.07,9.25 -5.66,5.76 -9.43,13.62 -10.18,22.02 -0.08,0.89 -0.12,1.92 -0.12,3.08l0 60.17c0,9.12 3.67,17.05 9.59,22.97 6.34,6.33 15.23,10.42 25.02,11.29z"/>
   <path class="fil2" d="M419.07 220.95l11.54 1.03c-20.98,-28.85 -42.95,-69.89 -55.74,-133.57l-9.15 -0.82c12.15,62.31 32.89,103.74 53.35,133.36z"/>
   <path class="fil3" d="M61.47 138.85l12.1 1.08 2.1 -23.62c0.15,-1.8 0.33,-3.09 0.53,-3.87 0.09,-0.5 0.16,-0.91 0.24,-1.25l-0.19 -0.01c-0.19,0.19 -0.44,0.4 -0.75,0.63 -0.23,0.19 -0.54,0.41 -0.92,0.67 -0.38,0.26 -0.83,0.54 -1.36,0.83l-9.35 4.92 0.81 -9.09 11.23 -6.26 10.34 0.92 -3.29 36.96 9.53 0.85 -0.73 8.15 -31.01 -2.76 0.72 -8.15zm38.31 -20.34c0.19,-2.13 0.74,-4.02 1.64,-5.66 0.91,-1.65 2.1,-3.03 3.59,-4.14 1.49,-1.11 3.23,-1.91 5.24,-2.4 2,-0.5 4.19,-0.64 6.57,-0.43 2.38,0.21 4.51,0.74 6.4,1.58 1.88,0.84 3.45,1.94 4.72,3.29 1.27,1.36 2.21,2.93 2.81,4.7 0.6,1.78 0.8,3.74 0.61,5.87l-1.62 18.23c-0.18,2.09 -0.74,3.97 -1.67,5.63 -0.92,1.67 -2.13,3.06 -3.62,4.17 -1.49,1.1 -3.23,1.92 -5.24,2.44 -2,0.51 -4.17,0.67 -6.51,0.46 -2.38,-0.21 -4.51,-0.74 -6.4,-1.58 -1.88,-0.84 -3.46,-1.94 -4.73,-3.29 -1.26,-1.36 -2.2,-2.94 -2.8,-4.74 -0.59,-1.8 -0.8,-3.76 -0.61,-5.89l1.62 -18.24zm7.47 19.04c-0.16,1.76 0.33,3.23 1.47,4.43 1.13,1.19 2.7,1.88 4.71,2.06 2,0.18 3.67,-0.22 5,-1.2 1.33,-0.97 2.07,-2.34 2.23,-4.09l1.62 -18.24c0.15,-1.75 -0.34,-3.23 -1.47,-4.42 -1.14,-1.2 -2.71,-1.89 -4.71,-2.06 -2.01,-0.18 -3.68,0.22 -5,1.19 -1.33,0.98 -2.08,2.35 -2.23,4.1l-1.62 18.23zm5.05 -12.81c0.09,-0.96 0.42,-1.7 0.99,-2.22 0.57,-0.51 1.27,-0.74 2.11,-0.66 0.83,0.07 1.49,0.41 1.96,1.03 0.47,0.6 0.67,1.39 0.58,2.35l-0.78 8.77c-0.08,0.96 -0.41,1.7 -0.99,2.22 -0.57,0.52 -1.27,0.74 -2.11,0.67 -0.83,-0.08 -1.49,-0.42 -1.96,-1.03 -0.47,-0.61 -0.66,-1.4 -0.58,-2.36l0.78 -8.77zm25.08 -2.89c0.19,-2.13 0.73,-4.01 1.64,-5.66 0.9,-1.65 2.1,-3.02 3.59,-4.13 1.48,-1.11 3.23,-1.92 5.23,-2.41 2,-0.5 4.19,-0.64 6.57,-0.43 2.39,0.21 4.52,0.74 6.4,1.58 1.88,0.84 3.46,1.94 4.73,3.29 1.27,1.36 2.2,2.93 2.8,4.71 0.6,1.78 0.81,3.73 0.62,5.86l-1.62 18.24c-0.19,2.08 -0.74,3.96 -1.67,5.63 -0.93,1.66 -2.14,3.05 -3.62,4.16 -1.49,1.11 -3.24,1.92 -5.24,2.44 -2.01,0.51 -4.18,0.67 -6.52,0.46 -2.38,-0.21 -4.51,-0.74 -6.39,-1.58 -1.88,-0.84 -3.46,-1.94 -4.73,-3.29 -1.27,-1.36 -2.2,-2.94 -2.8,-4.74 -0.6,-1.8 -0.8,-3.76 -0.61,-5.89l1.62 -18.24zm7.46 19.05c-0.15,1.75 0.34,3.22 1.47,4.42 1.14,1.2 2.71,1.88 4.71,2.06 2.01,0.18 3.68,-0.22 5,-1.2 1.33,-0.97 2.08,-2.34 2.23,-4.09l1.62 -18.24c0.16,-1.75 -0.33,-3.23 -1.47,-4.42 -1.13,-1.2 -2.7,-1.88 -4.71,-2.06 -2,-0.18 -3.67,0.22 -5,1.2 -1.33,0.97 -2.07,2.34 -2.23,4.09l-1.62 18.24zm5.06 -12.82c0.08,-0.96 0.41,-1.7 0.98,-2.21 0.58,-0.52 1.28,-0.74 2.12,-0.67 0.83,0.07 1.48,0.42 1.96,1.03 0.47,0.61 0.66,1.39 0.58,2.35l-0.78 8.78c-0.09,0.96 -0.42,1.7 -0.99,2.21 -0.57,0.52 -1.28,0.74 -2.11,0.67 -0.84,-0.08 -1.49,-0.42 -1.96,-1.03 -0.47,-0.61 -0.67,-1.39 -0.58,-2.36l0.78 -8.77zm26.26 -5.56l9.08 0.81 -0.53 5.95 0.63 0.06c0.52,-2.02 1.61,-3.54 3.28,-4.57 1.67,-1.03 3.74,-1.44 6.2,-1.22 1.84,0.16 3.46,0.62 4.87,1.38 1.41,0.76 2.59,1.77 3.55,3.03 0.96,1.26 1.65,2.76 2.06,4.48 0.42,1.72 0.54,3.6 0.36,5.65l-0.76 8.46c-0.18,2.13 -0.64,4.02 -1.35,5.66 -0.72,1.64 -1.66,3.01 -2.83,4.1 -1.17,1.1 -2.52,1.91 -4.04,2.42 -1.52,0.52 -3.19,0.7 -5.03,0.54 -2.47,-0.22 -4.43,-0.99 -5.89,-2.3 -1.46,-1.31 -2.27,-3.02 -2.42,-5.14l-0.63 -0.05c0.02,0.34 0.01,1.09 -0.01,2.27 -0.02,1.18 -0.09,2.43 -0.21,3.77l-0.94 10.65 -9.4 -0.83 4.01 -45.12zm8.23 14l-0.73 8.14c-0.14,1.63 0.26,3.01 1.21,4.15 0.95,1.14 2.37,1.79 4.25,1.96 1.88,0.16 3.38,-0.25 4.5,-1.24 1.12,-1 1.76,-2.37 1.91,-4.13l0.7 -7.83c0.16,-1.76 -0.25,-3.18 -1.23,-4.28 -0.98,-1.1 -2.36,-1.72 -4.16,-1.88 -1.8,-0.16 -3.28,0.22 -4.46,1.15 -1.18,0.92 -1.84,2.24 -1.99,3.96zm27.81 15.35l12.22 1.09 1.55 -17.48 -10.65 -0.95 0.75 -8.46 19.42 1.73 -2.3 25.94 9.71 0.86 -0.76 8.52 -30.7 -2.73 0.76 -8.52zm13.45 -34.11c0.12,-1.33 0.64,-2.36 1.57,-3.08 0.93,-0.72 2.1,-1.01 3.52,-0.88l1.88 0.16c1.42,0.13 2.52,0.63 3.31,1.5 0.78,0.87 1.12,1.97 1,3.31 -0.12,1.33 -0.64,2.36 -1.57,3.08 -0.93,0.72 -2.12,1.01 -3.58,0.88l-1.82 -0.16c-1.42,-0.13 -2.52,-0.63 -3.31,-1.5 -0.78,-0.86 -1.12,-1.97 -1,-3.31zm25.57 11.43l8.9 0.79 -0.53 5.96 0.63 0.05c0.48,-2.1 1.54,-3.65 3.19,-4.64 1.65,-0.99 3.72,-1.37 6.23,-1.15 3.55,0.32 6.22,1.7 8.03,4.16 1.8,2.45 2.52,5.68 2.17,9.69l-1.98 22.25 -9.4 -0.84 1.89 -21.3c0.16,-1.76 -0.21,-3.18 -1.1,-4.27 -0.89,-1.09 -2.18,-1.71 -3.85,-1.86 -1.67,-0.15 -3.04,0.24 -4.11,1.15 -1.07,0.92 -1.68,2.25 -1.84,4.01l-1.89 21.3 -9.4 -0.83 3.06 -34.47zm35.64 16.12c0.18,-2.01 0.62,-3.82 1.34,-5.44 0.71,-1.62 1.64,-2.97 2.79,-4.05 1.15,-1.07 2.49,-1.87 4.03,-2.38 1.54,-0.52 3.21,-0.7 5.01,-0.54 2.63,0.23 4.7,1.05 6.22,2.45 1.52,1.4 2.29,3.15 2.31,5.26l0.44 0.04 0.56 -6.27 9.08 0.81 -2.9 32.64c-0.17,1.88 -0.67,3.55 -1.52,5.01 -0.84,1.46 -1.96,2.68 -3.35,3.65 -1.4,0.97 -3.04,1.68 -4.93,2.12 -1.89,0.44 -3.94,0.57 -6.16,0.37l-9.71 -0.86 0.67 -7.52 9.71 0.86c1.63,0.15 2.99,-0.2 4.07,-1.03 1.09,-0.82 1.69,-1.97 1.82,-3.43l0.04 -0.38 0.92 -6.86 -0.44 -0.04c-0.43,2.06 -1.52,3.65 -3.26,4.76 -1.74,1.11 -3.93,1.55 -6.56,1.31 -1.8,-0.16 -3.4,-0.63 -4.8,-1.41 -1.41,-0.77 -2.58,-1.79 -3.52,-3.05 -0.94,-1.27 -1.62,-2.76 -2.03,-4.48 -0.42,-1.72 -0.54,-3.58 -0.36,-5.59l0.53 -5.95zm8.9 6.47c-0.16,1.76 0.25,3.18 1.23,4.28 0.97,1.1 2.36,1.73 4.16,1.89 1.79,0.16 3.28,-0.23 4.46,-1.15 1.17,-0.93 1.84,-2.25 1.99,-3.96l0.47 -5.33c0.16,-1.71 -0.27,-3.13 -1.26,-4.25 -1,-1.12 -2.39,-1.76 -4.19,-1.92 -1.79,-0.16 -3.27,0.22 -4.42,1.12 -1.16,0.91 -1.81,2.24 -1.97,4l-0.47 5.32zm41.62 -25.66l9.9 0.88 -0.83 9.4 -3.25 20.23 -7.02 -0.62 0.37 -20.5 0.83 -9.39zm-4.33 40.98c0.12,-1.34 0.64,-2.37 1.57,-3.09 0.92,-0.71 2.1,-1.01 3.52,-0.88l1.88 0.16c1.42,0.13 2.52,0.63 3.3,1.5 0.79,0.87 1.12,1.97 1.01,3.31 -0.12,1.34 -0.65,2.36 -1.57,3.08 -0.93,0.72 -2.12,1.01 -3.59,0.88l-1.81 -0.16c-1.42,-0.13 -2.53,-0.62 -3.31,-1.49 -0.79,-0.87 -1.12,-1.98 -1,-3.31zm27.6 -2.92c0.31,-3.51 1.83,-6.16 4.56,-7.96 2.73,-1.8 6.29,-2.5 10.67,-2.12l7.46 0.67 0.27 -3.07c0.11,-1.21 -0.32,-2.24 -1.27,-3.08 -0.96,-0.85 -2.31,-1.35 -4.07,-1.5 -1.54,-0.14 -2.85,0.03 -3.93,0.5 -1.07,0.47 -1.8,1.18 -2.17,2.11l-9.09 -0.8c0.39,-1.57 1.05,-2.95 1.98,-4.15 0.93,-1.21 2.08,-2.2 3.45,-2.98 1.38,-0.78 2.94,-1.34 4.7,-1.67 1.76,-0.33 3.66,-0.4 5.7,-0.22 2.26,0.2 4.29,0.66 6.1,1.37 1.81,0.7 3.33,1.61 4.56,2.71 1.23,1.1 2.15,2.37 2.76,3.81 0.61,1.44 0.83,3.02 0.68,4.73l-2.11 23.81 -8.97 -0.79 0.62 -6.9 -0.57 -0.04c-0.5,2.31 -1.76,4.05 -3.78,5.22 -2.02,1.16 -4.53,1.61 -7.54,1.35 -3.34,-0.3 -5.91,-1.43 -7.72,-3.4 -1.8,-1.98 -2.56,-4.51 -2.29,-7.6zm9.53 -0.67c-0.12,1.34 0.26,2.44 1.13,3.29 0.87,0.86 2.19,1.37 3.94,1.52 2.01,0.18 3.69,-0.14 5.05,-0.97 1.35,-0.83 2.1,-1.97 2.23,-3.43l0.31 -3.51 -7.46 -0.67c-1.46,-0.13 -2.66,0.14 -3.6,0.79 -0.95,0.65 -1.48,1.65 -1.6,2.98zm29.79 -21.1l9.09 0.81 0.94 -10.65 9.4 0.84 -0.94 10.65 12.84 1.14 -0.75 8.46 -12.84 -1.14 -1.26 14.1c-0.09,1.08 0.13,1.95 0.68,2.61 0.56,0.66 1.38,1.04 2.46,1.14l8.77 0.78 -0.75 8.46 -9.71 -0.87c-3.72,-0.33 -6.54,-1.64 -8.46,-3.94 -1.92,-2.3 -2.72,-5.3 -2.39,-9.02l1.26 -14.1 -9.09 -0.81 0.75 -8.46zm37.6 3.35l9.08 0.8 0.95 -10.65 9.4 0.84 -0.95 10.65 12.85 1.14 -0.75 8.46 -12.85 -1.14 -1.25 14.1c-0.1,1.08 0.13,1.96 0.68,2.62 0.55,0.66 1.37,1.03 2.46,1.13l8.77 0.78 -0.75 8.46 -9.71 -0.86c-3.72,-0.33 -6.54,-1.65 -8.46,-3.95 -1.93,-2.29 -2.72,-5.3 -2.39,-9.02l1.25 -14.1 -9.08 -0.8 0.75 -8.46zm35.87 28.45c0.31,-3.51 1.83,-6.17 4.56,-7.97 2.72,-1.8 6.28,-2.5 10.67,-2.11l7.45 0.66 0.28 -3.07c0.1,-1.21 -0.32,-2.24 -1.28,-3.08 -0.95,-0.84 -2.31,-1.34 -4.06,-1.5 -1.55,-0.13 -2.86,0.03 -3.93,0.51 -1.08,0.47 -1.8,1.17 -2.18,2.11l-9.08 -0.81c0.39,-1.56 1.05,-2.95 1.97,-4.15 0.93,-1.2 2.08,-2.19 3.46,-2.98 1.37,-0.78 2.94,-1.34 4.69,-1.66 1.76,-0.33 3.66,-0.4 5.71,-0.22 2.25,0.2 4.29,0.65 6.1,1.36 1.81,0.71 3.33,1.61 4.56,2.71 1.22,1.1 2.14,2.37 2.75,3.81 0.61,1.45 0.84,3.03 0.69,4.74l-2.12 23.81 -8.96 -0.8 0.61 -6.89 -0.56 -0.05c-0.5,2.31 -1.76,4.05 -3.78,5.22 -2.02,1.17 -4.53,1.62 -7.54,1.35 -3.34,-0.29 -5.92,-1.43 -7.72,-3.4 -1.8,-1.97 -2.57,-4.5 -2.29,-7.59zm9.53 -0.67c-0.12,1.34 0.26,2.43 1.13,3.29 0.87,0.86 2.18,1.36 3.94,1.52 2,0.18 3.68,-0.15 5.04,-0.98 1.36,-0.82 2.1,-1.97 2.23,-3.43l0.31 -3.51 -7.45 -0.66c-1.47,-0.13 -2.67,0.13 -3.61,0.78 -0.94,0.66 -1.47,1.65 -1.59,2.99zm43.59 15.49c-2.38,-0.21 -4.52,-0.71 -6.41,-1.51 -1.88,-0.8 -3.46,-1.85 -4.74,-3.14 -1.27,-1.29 -2.21,-2.8 -2.82,-4.51 -0.6,-1.72 -0.81,-3.6 -0.63,-5.65l0.78 -8.83c0.19,-2.05 0.73,-3.87 1.62,-5.45 0.9,-1.58 2.09,-2.9 3.58,-3.94 1.48,-1.05 3.22,-1.81 5.22,-2.29 2,-0.47 4.19,-0.6 6.57,-0.39 2.09,0.18 4.01,0.65 5.75,1.39 1.75,0.75 3.26,1.72 4.54,2.93 1.28,1.21 2.31,2.63 3.1,4.26 0.78,1.62 1.25,3.41 1.41,5.36l-9.4 -0.83c-0.17,-1.36 -0.81,-2.49 -1.91,-3.39 -1.09,-0.9 -2.5,-1.43 -4.21,-1.58 -2.01,-0.18 -3.62,0.15 -4.83,1 -1.21,0.83 -1.89,2.09 -2.04,3.76l-0.78 8.84c-0.15,1.67 0.3,3.01 1.34,4.03 1.05,1.02 2.58,1.62 4.58,1.8 1.67,0.15 3.13,-0.13 4.37,-0.85 1.24,-0.71 2.09,-1.72 2.54,-3.02l9.4 0.83c-0.5,1.9 -1.28,3.57 -2.34,5.04 -1.06,1.46 -2.32,2.69 -3.8,3.67 -1.48,0.98 -3.14,1.69 -4.99,2.11 -1.85,0.43 -3.81,0.55 -5.9,0.36zm26.93 -43.7l9.4 0.83 -2.1 23.69 4.63 0.41 8.37 -12.39 10.46 0.93 -11.08 16 8.2 18.47 -10.65 -0.94 -6.06 -14.18 -4.58 -0.41 -1.2 13.53 -9.4 -0.83 4.01 -45.11z"/>
  </g>
 </g>
</svg>
