<?xml version="1.0" encoding="UTF-8"?>
<!DOCTYPE svg PUBLIC "-//W3C//DTD SVG 1.1//EN" "http://www.w3.org/Graphics/SVG/1.1/DTD/svg11.dtd">
<!-- Creator: CorelDRAW 2020 (64-Bit) -->
<svg xmlns="http://www.w3.org/2000/svg" xml:space="preserve" width="645px" height="296px" version="1.1" style="shape-rendering:geometricPrecision; text-rendering:geometricPrecision; image-rendering:optimizeQuality; fill-rule:evenodd; clip-rule:evenodd"
viewBox="0 0 301.87 138.6"
 xmlns:xlink="http://www.w3.org/1999/xlink"
 xmlns:xodm="http://www.corel.com/coreldraw/odm/2003">
 <defs>
  <style type="text/css">
   <![CDATA[
    .fil1 {fill:white}
    .fil0 {fill:white;fill-rule:nonzero}
   ]]>
  </style>
 </defs>
 <g id="Слой_x0020_1">
  <metadata id="CorelCorpID_0Corel-Layer"/>
  <g id="_2747822599664">
   <path class="fil0" d="M20.33 23.46l261.57 23.25c5.57,0.5 10.64,2.83 14.27,6.47 3.52,3.51 5.7,8.23 5.7,13.67l0 28.16c0,0.54 -0.03,1.14 -0.09,1.79 -0.43,4.91 -2.63,9.49 -5.92,12.85 -3.35,3.4 -7.84,5.57 -12.8,5.57 -0.44,0 -0.95,-0.03 -1.52,-0.08l-261.57 -23.25c-5.56,-0.49 -10.64,-2.83 -14.27,-6.46 -3.52,-3.52 -5.7,-8.24 -5.7,-13.67l0 -28.16c0,-0.54 0.03,-1.14 0.09,-1.8 0.43,-4.9 2.63,-9.49 5.92,-12.84 3.35,-3.41 7.84,-5.57 12.8,-5.57 0.44,0 0.95,0.02 1.52,0.07zm261.21 27.35l-261.57 -23.25c-0.32,-0.03 -0.71,-0.04 -1.16,-0.04 -3.8,0 -7.26,1.68 -9.86,4.33 -2.65,2.69 -4.41,6.37 -4.76,10.31 -0.04,0.41 -0.06,0.89 -0.06,1.44l0 28.16c0,4.27 1.72,7.97 4.49,10.74 2.97,2.97 7.13,4.88 11.71,5.29l261.57 23.25c0.33,0.03 0.71,0.04 1.16,0.04 3.8,0 7.26,-1.68 9.86,-4.32 2.65,-2.7 4.41,-6.38 4.76,-10.31 0.04,-0.42 0.06,-0.9 0.06,-1.44l0 -28.16c0,-4.27 -1.72,-7.98 -4.49,-10.75 -2.96,-2.97 -7.13,-4.88 -11.71,-5.29z"/>
   <path class="fil0" d="M54.49 138.54c-1.1,0.27 -2.22,-0.41 -2.49,-1.51 -0.26,-1.11 0.42,-2.22 1.52,-2.49 25.28,-6.2 45.21,-18.21 62.57,-38.24l5.04 0.45 -0.16 0.19c-18.36,21.95 -39.46,34.98 -66.48,41.6zm96.47 -99.33c5.28,-11.43 10.49,-24.02 15.76,-37.87 0.4,-1.07 1.59,-1.61 2.65,-1.21 0.81,0.31 1.31,1.06 1.34,1.87 0.76,14.88 2.43,27.92 4.73,39.38l-4.27 -0.38c-1.74,-8.88 -3.1,-18.67 -3.97,-29.49 -3.95,10.04 -7.9,19.39 -11.88,28.08l-4.36 -0.38zm50.58 64.69c5.02,6.91 9.93,12.33 14.07,16.9 2.19,2.42 4.16,4.6 5.84,6.64 0.72,0.88 0.6,2.18 -0.28,2.9 -0.88,0.72 -2.18,0.59 -2.9,-0.28 -1.65,-2.01 -3.58,-4.14 -5.71,-6.49 -4.8,-5.3 -10.59,-11.7 -16.42,-20.15l5.4 0.48z"/>
   <path class="fil1" d="M196.13 103.41l5.4 0.48c-9.82,-13.5 -20.1,-32.71 -26.09,-62.51l-4.28 -0.38c5.69,29.15 15.4,48.55 24.97,62.41z"/>
   <path class="fil0" d="M28.77 64.99l5.66 0.5 0.98 -11.06c0.08,-0.84 0.16,-1.44 0.25,-1.81 0.04,-0.23 0.08,-0.42 0.11,-0.58l-0.08 -0.01c-0.09,0.09 -0.21,0.19 -0.36,0.3 -0.1,0.09 -0.25,0.19 -0.42,0.31 -0.18,0.13 -0.4,0.26 -0.64,0.39l-4.38 2.3 0.38 -4.25 5.26 -2.93 4.84 0.43 -1.54 17.3 4.46 0.4 -0.34 3.81 -14.52 -1.29 0.34 -3.81zm17.93 -9.52c0.09,-1 0.34,-1.88 0.77,-2.66 0.42,-0.76 0.98,-1.41 1.68,-1.93 0.69,-0.52 1.51,-0.89 2.45,-1.13 0.93,-0.23 1.96,-0.29 3.07,-0.2 1.12,0.1 2.12,0.35 3,0.74 0.88,0.4 1.62,0.91 2.21,1.54 0.59,0.64 1.03,1.37 1.31,2.2 0.28,0.84 0.38,1.75 0.29,2.75l-0.76 8.53c-0.09,0.98 -0.35,1.86 -0.78,2.64 -0.43,0.78 -1,1.43 -1.7,1.95 -0.69,0.52 -1.51,0.9 -2.45,1.14 -0.93,0.24 -1.95,0.31 -3.04,0.21 -1.12,-0.09 -2.12,-0.34 -3,-0.73 -0.88,-0.4 -1.62,-0.91 -2.21,-1.55 -0.6,-0.63 -1.03,-1.37 -1.31,-2.21 -0.28,-0.84 -0.38,-1.76 -0.29,-2.76l0.76 -8.53zm3.49 8.91c-0.07,0.82 0.16,1.51 0.69,2.07 0.53,0.56 1.27,0.88 2.21,0.96 0.93,0.09 1.72,-0.1 2.34,-0.56 0.62,-0.45 0.97,-1.09 1.04,-1.91l0.76 -8.54c0.07,-0.82 -0.16,-1.51 -0.69,-2.07 -0.53,-0.56 -1.27,-0.88 -2.2,-0.96 -0.94,-0.09 -1.72,0.1 -2.35,0.56 -0.62,0.45 -0.96,1.09 -1.04,1.91l-0.76 8.54zm2.37 -6c0.04,-0.45 0.19,-0.79 0.46,-1.04 0.27,-0.24 0.6,-0.34 0.99,-0.31 0.39,0.04 0.7,0.2 0.92,0.48 0.22,0.29 0.31,0.66 0.27,1.11l-0.37 4.1c-0.04,0.45 -0.19,0.8 -0.46,1.04 -0.27,0.24 -0.6,0.34 -0.99,0.31 -0.39,-0.03 -0.69,-0.2 -0.91,-0.48 -0.23,-0.29 -0.32,-0.65 -0.28,-1.1l0.37 -4.11zm11.74 -1.35c0.08,-1 0.34,-1.88 0.76,-2.65 0.43,-0.77 0.99,-1.42 1.68,-1.94 0.7,-0.51 1.52,-0.89 2.45,-1.12 0.94,-0.23 1.97,-0.3 3.08,-0.2 1.11,0.1 2.11,0.34 2.99,0.74 0.88,0.39 1.62,0.9 2.22,1.54 0.59,0.63 1.03,1.37 1.31,2.2 0.28,0.83 0.37,1.75 0.29,2.74l-0.76 8.54c-0.09,0.98 -0.35,1.85 -0.78,2.63 -0.44,0.78 -1,1.43 -1.7,1.95 -0.7,0.52 -1.51,0.9 -2.45,1.14 -0.94,0.24 -1.95,0.32 -3.05,0.22 -1.11,-0.1 -2.11,-0.35 -2.99,-0.74 -0.88,-0.39 -1.62,-0.91 -2.22,-1.54 -0.59,-0.64 -1.03,-1.37 -1.31,-2.22 -0.28,-0.84 -0.37,-1.76 -0.28,-2.76l0.76 -8.53zm3.49 8.91c-0.07,0.82 0.16,1.51 0.69,2.07 0.53,0.56 1.26,0.88 2.2,0.97 0.94,0.08 1.72,-0.11 2.34,-0.56 0.62,-0.46 0.97,-1.1 1.04,-1.92l0.76 -8.53c0.08,-0.83 -0.15,-1.52 -0.68,-2.08 -0.54,-0.55 -1.27,-0.88 -2.21,-0.96 -0.94,-0.08 -1.72,0.1 -2.34,0.56 -0.62,0.46 -0.97,1.1 -1.04,1.92l-0.76 8.53zm2.36 -5.99c0.04,-0.45 0.2,-0.8 0.47,-1.04 0.26,-0.24 0.59,-0.35 0.98,-0.31 0.4,0.03 0.7,0.19 0.92,0.48 0.22,0.28 0.31,0.65 0.27,1.1l-0.36 4.11c-0.04,0.44 -0.19,0.79 -0.46,1.03 -0.27,0.25 -0.6,0.35 -0.99,0.31 -0.39,-0.03 -0.7,-0.19 -0.92,-0.48 -0.22,-0.28 -0.31,-0.65 -0.27,-1.1l0.36 -4.1zm12.29 -2.61l4.26 0.38 -0.25 2.79 0.29 0.02c0.24,-0.94 0.76,-1.65 1.54,-2.14 0.78,-0.48 1.75,-0.67 2.9,-0.57 0.86,0.08 1.62,0.3 2.28,0.65 0.66,0.35 1.21,0.83 1.66,1.42 0.45,0.59 0.77,1.29 0.97,2.09 0.19,0.81 0.25,1.69 0.16,2.65l-0.35 3.96c-0.09,0.99 -0.3,1.88 -0.64,2.65 -0.33,0.76 -0.77,1.4 -1.32,1.92 -0.55,0.51 -1.18,0.89 -1.89,1.13 -0.71,0.24 -1.49,0.33 -2.36,0.25 -1.15,-0.1 -2.07,-0.46 -2.75,-1.07 -0.69,-0.62 -1.06,-1.42 -1.13,-2.41l-0.3 -0.03c0.01,0.16 0.01,0.52 0,1.07 -0.01,0.55 -0.04,1.14 -0.1,1.76l-0.44 4.99 -4.4 -0.39 1.87 -21.12zm3.86 6.55l-0.34 3.81c-0.07,0.77 0.12,1.41 0.56,1.95 0.45,0.53 1.11,0.83 1.99,0.91 0.88,0.08 1.58,-0.11 2.11,-0.58 0.52,-0.47 0.82,-1.11 0.89,-1.93l0.33 -3.67c0.07,-0.82 -0.12,-1.48 -0.58,-2 -0.45,-0.51 -1.1,-0.8 -1.94,-0.88 -0.84,-0.07 -1.54,0.11 -2.09,0.54 -0.55,0.43 -0.86,1.05 -0.93,1.85zm13.01 7.19l5.72 0.51 0.73 -8.18 -4.99 -0.45 0.36 -3.96 9.09 0.81 -1.08 12.14 4.54 0.41 -0.35 3.98 -14.37 -1.27 0.35 -3.99zm6.3 -15.96c0.05,-0.63 0.3,-1.11 0.73,-1.45 0.44,-0.33 0.99,-0.47 1.65,-0.41l0.88 0.08c0.66,0.06 1.18,0.29 1.55,0.7 0.37,0.4 0.52,0.92 0.47,1.54 -0.06,0.63 -0.3,1.11 -0.74,1.45 -0.43,0.33 -0.99,0.47 -1.67,0.41l-0.85 -0.08c-0.67,-0.05 -1.19,-0.29 -1.55,-0.7 -0.37,-0.4 -0.53,-0.92 -0.47,-1.54zm11.97 5.35l4.16 0.37 -0.25 2.78 0.3 0.03c0.22,-0.99 0.72,-1.71 1.49,-2.18 0.77,-0.46 1.74,-0.64 2.91,-0.53 1.67,0.14 2.92,0.79 3.76,1.94 0.85,1.15 1.19,2.66 1.02,4.54l-0.93 10.41 -4.4 -0.39 0.89 -9.97c0.07,-0.82 -0.1,-1.49 -0.52,-2 -0.41,-0.51 -1.01,-0.8 -1.8,-0.87 -0.78,-0.07 -1.42,0.11 -1.92,0.54 -0.5,0.43 -0.79,1.05 -0.86,1.87l-0.89 9.98 -4.4 -0.4 1.44 -16.12zm16.68 7.54c0.08,-0.94 0.29,-1.79 0.62,-2.55 0.34,-0.76 0.77,-1.39 1.31,-1.89 0.54,-0.51 1.16,-0.88 1.89,-1.12 0.72,-0.24 1.5,-0.32 2.34,-0.25 1.23,0.11 2.2,0.49 2.91,1.15 0.71,0.65 1.07,1.47 1.08,2.46l0.21 0.01 0.26 -2.93 4.25 0.38 -1.36 15.28c-0.08,0.88 -0.31,1.66 -0.71,2.34 -0.39,0.69 -0.92,1.26 -1.57,1.71 -0.65,0.46 -1.42,0.79 -2.3,0.99 -0.89,0.21 -1.85,0.27 -2.89,0.18l-4.54 -0.41 0.31 -3.52 4.55 0.41c0.76,0.07 1.39,-0.1 1.9,-0.48 0.51,-0.39 0.79,-0.93 0.85,-1.61l0.02 -0.18 0.43 -3.21 -0.2 -0.02c-0.21,0.97 -0.72,1.71 -1.53,2.23 -0.82,0.52 -1.84,0.72 -3.07,0.61 -0.84,-0.07 -1.59,-0.29 -2.25,-0.66 -0.65,-0.36 -1.2,-0.84 -1.64,-1.43 -0.44,-0.59 -0.76,-1.29 -0.95,-2.09 -0.2,-0.81 -0.25,-1.68 -0.17,-2.62l0.25 -2.78zm4.16 3.03c-0.07,0.82 0.12,1.49 0.58,2 0.45,0.51 1.1,0.81 1.94,0.88 0.84,0.08 1.54,-0.1 2.09,-0.54 0.55,-0.43 0.86,-1.05 0.93,-1.85l0.22 -2.49c0.08,-0.8 -0.12,-1.47 -0.59,-1.99 -0.46,-0.53 -1.12,-0.82 -1.96,-0.9 -0.84,-0.07 -1.53,0.1 -2.07,0.53 -0.54,0.42 -0.84,1.04 -0.92,1.86l-0.22 2.5zm19.48 -12.01l4.64 0.41 -0.4 4.4 -1.52 9.47 -3.28 -0.3 0.17 -9.59 0.39 -4.39zm-2.03 19.17c0.06,-0.62 0.3,-1.1 0.74,-1.44 0.43,-0.33 0.98,-0.47 1.64,-0.41l0.88 0.08c0.67,0.05 1.18,0.29 1.55,0.69 0.37,0.41 0.53,0.93 0.47,1.55 -0.06,0.63 -0.3,1.11 -0.73,1.45 -0.44,0.33 -1,0.47 -1.68,0.41l-0.85 -0.08c-0.67,-0.06 -1.18,-0.29 -1.55,-0.7 -0.37,-0.4 -0.52,-0.92 -0.47,-1.55zm12.92 -1.36c0.15,-1.64 0.86,-2.88 2.14,-3.73 1.27,-0.84 2.94,-1.17 4.99,-0.99l3.49 0.31 0.13 -1.43c0.05,-0.57 -0.15,-1.05 -0.6,-1.44 -0.45,-0.4 -1.08,-0.63 -1.9,-0.71 -0.72,-0.06 -1.34,0.02 -1.84,0.24 -0.5,0.22 -0.84,0.55 -1.02,0.99l-4.25 -0.38c0.18,-0.73 0.49,-1.38 0.93,-1.94 0.43,-0.56 0.97,-1.03 1.61,-1.4 0.64,-0.36 1.38,-0.62 2.2,-0.78 0.82,-0.15 1.71,-0.18 2.67,-0.1 1.05,0.1 2.01,0.31 2.85,0.64 0.85,0.33 1.56,0.75 2.14,1.27 0.57,0.51 1,1.11 1.29,1.78 0.28,0.68 0.39,1.42 0.32,2.22l-0.99 11.14 -4.2 -0.37 0.29 -3.23 -0.26 -0.02c-0.24,1.08 -0.83,1.9 -1.77,2.44 -0.95,0.55 -2.12,0.76 -3.53,0.64 -1.57,-0.14 -2.77,-0.67 -3.62,-1.6 -0.84,-0.92 -1.2,-2.1 -1.07,-3.55zm4.46 -0.31c-0.05,0.62 0.12,1.14 0.53,1.54 0.41,0.4 1.02,0.63 1.84,0.71 0.94,0.08 1.73,-0.07 2.37,-0.46 0.63,-0.38 0.98,-0.92 1.04,-1.6l0.15 -1.65 -3.49 -0.31c-0.69,-0.06 -1.25,0.07 -1.69,0.37 -0.44,0.31 -0.69,0.77 -0.75,1.4zm13.94 -9.88l4.26 0.38 0.44 -4.98 4.4 0.39 -0.44 4.98 6.01 0.54 -0.35 3.95 -6.02 -0.53 -0.58 6.6c-0.05,0.51 0.06,0.92 0.32,1.22 0.25,0.31 0.64,0.49 1.15,0.54l4.1 0.36 -0.35 3.96 -4.54 -0.4c-1.74,-0.16 -3.06,-0.77 -3.96,-1.85 -0.9,-1.07 -1.28,-2.48 -1.12,-4.22l0.58 -6.6 -4.25 -0.38 0.35 -3.96zm17.6 1.57l4.25 0.37 0.44 -4.98 4.4 0.39 -0.44 4.99 6.01 0.53 -0.35 3.96 -6.01 -0.53 -0.59 6.59c-0.04,0.51 0.06,0.92 0.32,1.23 0.26,0.31 0.64,0.48 1.15,0.53l4.11 0.36 -0.35 3.96 -4.55 -0.4c-1.74,-0.16 -3.06,-0.77 -3.96,-1.85 -0.9,-1.07 -1.27,-2.48 -1.12,-4.22l0.59 -6.6 -4.25 -0.37 0.35 -3.96zm16.79 13.31c0.14,-1.64 0.85,-2.88 2.13,-3.72 1.28,-0.85 2.94,-1.18 5,-0.99l3.49 0.31 0.12 -1.44c0.05,-0.57 -0.15,-1.05 -0.59,-1.44 -0.45,-0.4 -1.09,-0.63 -1.91,-0.7 -0.72,-0.07 -1.33,0.01 -1.83,0.23 -0.51,0.22 -0.85,0.55 -1.02,0.99l-4.26 -0.38c0.19,-0.73 0.5,-1.38 0.93,-1.94 0.43,-0.56 0.97,-1.03 1.62,-1.39 0.64,-0.37 1.37,-0.63 2.19,-0.78 0.83,-0.16 1.72,-0.19 2.67,-0.11 1.06,0.1 2.01,0.31 2.86,0.64 0.85,0.33 1.56,0.76 2.13,1.27 0.58,0.51 1.01,1.11 1.29,1.78 0.29,0.68 0.39,1.42 0.32,2.22l-0.99 11.14 -4.19 -0.37 0.28 -3.22 -0.26 -0.03c-0.23,1.08 -0.82,1.9 -1.77,2.45 -0.94,0.54 -2.12,0.75 -3.53,0.63 -1.56,-0.14 -2.77,-0.67 -3.61,-1.59 -0.84,-0.93 -1.2,-2.11 -1.07,-3.56zm4.46 -0.31c-0.06,0.62 0.12,1.14 0.53,1.54 0.4,0.4 1.02,0.64 1.84,0.71 0.94,0.08 1.73,-0.07 2.36,-0.46 0.64,-0.38 0.98,-0.92 1.04,-1.6l0.15 -1.64 -3.49 -0.31c-0.68,-0.07 -1.25,0.06 -1.69,0.36 -0.44,0.31 -0.69,0.77 -0.74,1.4zm20.4 7.25c-1.12,-0.1 -2.11,-0.33 -3,-0.71 -0.88,-0.37 -1.62,-0.86 -2.22,-1.47 -0.59,-0.6 -1.03,-1.31 -1.32,-2.11 -0.28,-0.8 -0.38,-1.68 -0.29,-2.64l0.36 -4.14c0.09,-0.95 0.34,-1.8 0.76,-2.55 0.42,-0.74 0.98,-1.35 1.67,-1.84 0.7,-0.49 1.51,-0.85 2.45,-1.07 0.93,-0.22 1.96,-0.28 3.07,-0.18 0.98,0.08 1.88,0.3 2.69,0.65 0.82,0.35 1.53,0.8 2.13,1.37 0.6,0.57 1.08,1.23 1.45,1.99 0.36,0.76 0.58,1.6 0.66,2.51l-4.4 -0.39c-0.08,-0.64 -0.38,-1.17 -0.89,-1.58 -0.52,-0.43 -1.17,-0.67 -1.97,-0.74 -0.94,-0.09 -1.7,0.07 -2.26,0.46 -0.57,0.4 -0.89,0.98 -0.96,1.76l-0.37 4.14c-0.06,0.78 0.15,1.41 0.63,1.89 0.49,0.47 1.21,0.76 2.15,0.84 0.78,0.07 1.46,-0.06 2.04,-0.4 0.58,-0.33 0.98,-0.8 1.19,-1.41l4.4 0.39c-0.24,0.88 -0.6,1.67 -1.1,2.35 -0.49,0.69 -1.08,1.26 -1.77,1.72 -0.69,0.46 -1.47,0.79 -2.34,0.99 -0.86,0.2 -1.78,0.26 -2.76,0.17zm12.61 -20.46l4.39 0.4 -0.98 11.08 2.17 0.19 3.91 -5.8 4.9 0.44 -5.19 7.49 3.84 8.65 -4.98 -0.45 -2.84 -6.63 -2.14 -0.19 -0.56 6.33 -4.4 -0.39 1.88 -21.12z"/>
  </g>
 </g>
</svg>
